<svg id="Layer_1" data-name="Layer 1" xmlns="http://www.w3.org/2000/svg" viewBox="0 0 1917.88 327.83"><defs><style>.cls-1{fill:#439d6f;}</style></defs><title>Kungul_Logo_verified 2</title><path class="cls-1" d="M143.43,133.35a.1.1,0,0,0,0,0l-10.14-13a20.4,20.4,0,0,0-28.64-3.51l-33.7,26.35v-103c0-14.26-10-25.82-22.39-25.82H36.38C24,14.39,14,26,14,40.21V232.46c0,14.26,10,25.82,22.39,25.82H48.52c12.36,0,22.39-11.56,22.39-25.82V215.88l39.93-31.23,51.48,65.83A20.47,20.47,0,0,0,191.07,254l12.85-10a20.49,20.49,0,0,0,3.52-28.76Z"/><path class="cls-1" d="M377.23,123.84a22.38,22.38,0,0,0-22.39-22.39H342.7a22.39,22.39,0,0,0-22.39,22.39v62.24c0,22.68-5.35,30.19-18.78,30.19-12.84,0-16.78-9.77-16.78-23.67V123.84a22.38,22.38,0,0,0-22.39-22.39h-12a22.38,22.38,0,0,0-22.39,22.39v78.22c0,36.28,17.45,56.22,50.28,56.22,19.31,0,32.44-5.48,42.3-19.95v.12a16.8,16.8,0,0,0,16.76,16h23.25a16.78,16.78,0,0,0,16.78-16.91c-.08-11.25-.08-23.14-.08-32Z"/><path class="cls-1" d="M502.28,97.74c-25,0-37.63,11.82-43.51,20.57v-.13a17.87,17.87,0,0,0-17.84-16.73H419.63a17.87,17.87,0,0,0-17.88,18c.07,7.18.1,14.55.1,21.62v95.47a17.89,17.89,0,0,0,17.88,17.88h21.16a17.89,17.89,0,0,0,17.88-17.88V167.2c0-21.47,7.46-27.75,19.35-27.75,13.1,0,17.35,8.3,17.35,23v74.1a17.88,17.88,0,0,0,17.88,17.88h21a17.88,17.88,0,0,0,17.88-17.88V155.88C552.28,118.43,532.91,97.74,502.28,97.74Z"/><path class="cls-1" d="M717,101.45H691.15a15.26,15.26,0,0,0-15.23,14v.12c-2.35-7-13.06-17.88-37.43-17.88-38.34,0-65.74,32.57-65.74,80.29,0,40.4,21.88,73.27,62,73.27,21.6,0,33.34-7.58,41.12-19.22v8.08c0,25-4.07,36.79-23.71,36.79-8.89,0-14-2.69-17-7a15.39,15.39,0,0,0-12.59-6.65H596.92a15.28,15.28,0,0,0-12.71,23.74c9,13.7,27.67,26.36,65.74,26.36,64.49,0,82.21-31.73,82.21-81.81V145.35c0-10.63,0-20.1.13-28.47A15.27,15.27,0,0,0,717,101.45ZM654.26,211.73c-14.55,0-23.23-13.39-23.23-36.46,0-27.83,10.72-38.36,24.11-38.36,20.06,0,22.54,14,22.54,37.91C677.68,197.44,673.29,211.73,654.26,211.73Z"/><path class="cls-1" d="M905.32,118.23a16.78,16.78,0,0,0-16.78-16.78H865.18a16.78,16.78,0,0,0-16.78,16.78v67.85c0,22.68-5.35,30.19-18.78,30.19-12.84,0-16.78-9.77-16.78-23.67V118.23a16.78,16.78,0,0,0-16.78-16.78H772.81A16.78,16.78,0,0,0,756,118.23v83.83c0,36.28,17.45,56.22,50.28,56.22,19.31,0,32.45-5.48,42.3-19.95v.12a16.8,16.8,0,0,0,16.77,16h23.24a16.78,16.78,0,0,0,16.78-16.91c-.08-11.25-.08-23.14-.08-32Z"/><rect class="cls-1" x="929.09" y="43" width="56.92" height="211.47" rx="22.39"/><path class="cls-1" d="M134.61,96.37l33.57-5.73,7.16-1.22a23.46,23.46,0,0,0,.8-46.09L175,43.1l-.53-1A23.46,23.46,0,0,0,131,47.28l0,.12-.12.51-.19.92c-.11.62-.2,1.25-.27,1.87a24.32,24.32,0,0,0,0,4.75Z"/><path class="cls-1" d="M143,133.3s0,0,0,0l-10.15-13a20.42,20.42,0,0,0-28.66-3.51L70.46,143.15v-103c0-14.28-10-25.85-22.41-25.85H35.91c-12.38,0-22.41,11.57-22.41,25.85V232.51c0,14.27,10,25.84,22.41,25.84H48.05c12.38,0,22.41-11.57,22.41-25.84V215.92l40-31.25,51.51,65.88a20.51,20.51,0,0,0,28.78,3.52l12.85-10a20.5,20.5,0,0,0,3.53-28.78Z"/><path class="cls-1" d="M377,123.8a22.4,22.4,0,0,0-22.41-22.4H342.47a22.4,22.4,0,0,0-22.41,22.4v62.3c0,22.69-5.35,30.21-18.79,30.21-12.86,0-16.8-9.78-16.8-23.69V123.8a22.4,22.4,0,0,0-22.41-22.4H250a22.4,22.4,0,0,0-22.41,22.4v78.29c0,36.31,17.47,56.26,50.32,56.26,19.33,0,32.47-5.48,42.34-20v.12a16.8,16.8,0,0,0,16.78,16h23.26a16.79,16.79,0,0,0,16.79-16.93c-.08-11.25-.08-23.15-.08-32Z"/><path class="cls-1" d="M502.17,97.68c-25,0-37.66,11.83-43.55,20.6v-.14a17.9,17.9,0,0,0-17.86-16.74H419.45a17.88,17.88,0,0,0-17.89,18.06c.07,7.19.1,14.57.1,21.64v95.54a17.9,17.9,0,0,0,17.89,17.9h21.18a17.9,17.9,0,0,0,17.89-17.9V167.2c0-21.49,7.47-27.77,19.37-27.77,13.11,0,17.36,8.31,17.36,23v74.16a17.9,17.9,0,0,0,17.89,17.9h21.08a17.9,17.9,0,0,0,17.89-17.9V155.87c0-37.47-19.39-58.19-50-58.19"/><path class="cls-1" d="M717.07,101.4H691.18a15.28,15.28,0,0,0-15.24,14.06v.12c-2.36-7-13.08-17.89-37.47-17.89-38.37,0-65.78,32.59-65.78,80.35,0,40.43,21.89,73.32,62.09,73.32,21.62,0,33.37-7.58,41.16-19.23v8.08c0,25-4.08,36.83-23.73,36.83-8.9,0-14-2.7-17-7a15.44,15.44,0,0,0-12.61-6.65H596.88a15.29,15.29,0,0,0-12.72,23.76c9.06,13.7,27.69,26.38,65.8,26.38,64.53,0,82.27-31.76,82.27-81.88V145.34c0-10.65,0-20.12.12-28.5a15.28,15.28,0,0,0-15.28-15.44m-62.8,110.37c-14.57,0-23.25-13.41-23.25-36.5,0-27.84,10.72-38.39,24.12-38.39,20.09,0,22.56,14,22.56,37.94,0,22.64-4.39,37-23.43,37"/><path class="cls-1" d="M905.52,118.19a16.8,16.8,0,0,0-16.79-16.8H865.35a16.8,16.8,0,0,0-16.79,16.8V186.1c0,22.69-5.35,30.21-18.79,30.21-12.86,0-16.8-9.78-16.8-23.69V118.19a16.8,16.8,0,0,0-16.79-16.8H772.91a16.8,16.8,0,0,0-16.8,16.8v83.9c0,36.31,17.47,56.26,50.32,56.26,19.33,0,32.47-5.48,42.34-20v.13a16.8,16.8,0,0,0,16.78,16h23.26a16.8,16.8,0,0,0,16.79-16.93c-.08-11.26-.08-23.15-.08-32Z"/><path class="cls-1" d="M963.86,42.91H951.72a22.4,22.4,0,0,0-22.41,22.4V232.13a22.41,22.41,0,0,0,22.41,22.41h12.14a22.41,22.41,0,0,0,22.41-22.41V65.31a22.4,22.4,0,0,0-22.41-22.4"/><path class="cls-1" d="M134.21,96.31l33.6-5.73L175,89.36a23.48,23.48,0,0,0,.81-46.13L174.67,43l-.54-1a23.48,23.48,0,0,0-43.5,5.19l0,.11-.12.52c-.06.3-.13.61-.19.92-.11.62-.2,1.25-.26,1.87a23.66,23.66,0,0,0,0,4.76Z"/><path class="cls-1" d="M1152.3,43.32h-9.06a6.15,6.15,0,0,0-5.45,3.73s-67.56,175.88-68.51,179l-39-120.62a5.37,5.37,0,0,0-5.2-3.88h-9.12a5.27,5.27,0,0,0-5.14,6.82l46,142.26a5.37,5.37,0,0,0,5.14,3.67h13.75a5.38,5.38,0,0,0,5-3.42l76.61-200.53a5.25,5.25,0,0,0-5-7.06"/><path class="cls-1" d="M1377.59,102.83c-1.37-.23-2.79-.43-4.27-.6a93.39,93.39,0,0,0-10.29-.58,47.31,47.31,0,0,0-20.16,4.19,49.61,49.61,0,0,0-15.58,11.25,58,58,0,0,0-10.58,16h-1.15l-1.64-23.52a5.41,5.41,0,0,0-5.38-5h-5.6a5.41,5.41,0,0,0-5.39,5.43V248.9a5.41,5.41,0,0,0,5.39,5.43h8.38a5.41,5.41,0,0,0,5.39-5.43V174.66A73.59,73.59,0,0,1,1320,152a50,50,0,0,1,9.43-17.46,43.05,43.05,0,0,1,14.3-11.11,41.5,41.5,0,0,1,18.16-3.9,76.57,76.57,0,0,1,9.44.58c1.12.15,2.23.31,3.34.51a5.43,5.43,0,0,0,6.35-4.55l1-7.09a5.45,5.45,0,0,0-4.45-6.16"/><path class="cls-1" d="M1421,101.4h-8.39a5.46,5.46,0,0,0-5.38,5.54V248.79a5.46,5.46,0,0,0,5.38,5.54H1421a5.46,5.46,0,0,0,5.38-5.54V106.94a5.46,5.46,0,0,0-5.38-5.54"/><path class="cls-1" d="M1416.76,49a11.63,11.63,0,0,0-9,3.57q-3.3,3.59-3.29,10.15t3.29,10.15q3.29,3.59,9,3.58a11.73,11.73,0,0,0,8.86-3.58q3.44-3.57,3.43-10.15t-3.43-10.15a11.76,11.76,0,0,0-8.86-3.57"/><path class="cls-1" d="M1546.8,45.31q-3.24-.84-6.89-1.6a76.18,76.18,0,0,0-15.44-1.43q-22.87,0-34.88,12.72t-12,39.9v6.43h-18.93a5.36,5.36,0,0,0-5.37,5.36v4.36a5.36,5.36,0,0,0,5.36,5.36h18.94V248.87a5.36,5.36,0,0,0,5.37,5.37h8.68a5.39,5.39,0,0,0,5.39-5.39V116.41h31.53a5.36,5.36,0,0,0,5.36-5.36v-4.44a5.36,5.36,0,0,0-5.36-5.36H1497V94.61q0-18.89,6.58-27.6t21.16-8.72a57,57,0,0,1,12,1.29q3,.64,5.63,1.39a5.37,5.37,0,0,0,6.56-3.6l1.62-5.25a5.39,5.39,0,0,0-3.78-6.81"/><path class="cls-1" d="M1212.82,100q19.77,0,33.23,8.88a56.14,56.14,0,0,1,20.47,24.48q7,15.62,7,36.23v7.73a4.87,4.87,0,0,1-4.88,4.87H1165.85q.29,28.94,13.89,44.25t38.81,15.32a109.4,109.4,0,0,0,25.2-2.58,124.27,124.27,0,0,0,16.8-5.34,4.7,4.7,0,0,1,6.4,4.39v6.81a5.36,5.36,0,0,1-3.39,5,123.86,123.86,0,0,1-19.37,5.91,127.45,127.45,0,0,1-26.5,2.44q-22.34,0-38.52-9.31a61.2,61.2,0,0,1-24.77-26.78q-8.6-17.48-8.59-41.82,0-24.06,8-42.09t23.05-28.22q15-10.15,35.94-10.16m0,16q-20,0-32.22,13.17t-14.17,37.23h86.77q.29-15.18-4.15-26.35a38.5,38.5,0,0,0-13.46-17.61q-9-6.45-22.77-6.44"/><path class="cls-1" d="M1584.44,49a11.79,11.79,0,0,1,8.89,3.59q3.43,3.58,3.44,10.17t-3.44,10.18a11.78,11.78,0,0,1-8.89,3.58q-5.75,0-9-3.58t-3.3-10.18q0-6.59,3.3-10.17A11.64,11.64,0,0,1,1584.44,49Zm9.46,58.28V248.71a5.63,5.63,0,0,1-5.63,5.62h-8a5.63,5.63,0,0,1-5.63-5.63V107.28a5.63,5.63,0,0,1,5.63-5.63h8A5.63,5.63,0,0,1,1593.9,107.28Z"/><path class="cls-1" d="M1686.07,100.24q19.77,0,33.25,8.88a56.18,56.18,0,0,1,20.5,24.52q7,15.63,7,36.26v5.32a7.3,7.3,0,0,1-7.3,7.3h-100.5q.29,28.95,13.9,44.29t38.85,15.34a110.29,110.29,0,0,0,25.23-2.58,121.21,121.21,0,0,0,12.19-3.62,8.23,8.23,0,0,1,11,7.72h0a8,8,0,0,1-5.22,7.46,122.78,122.78,0,0,1-17.57,5.21,127.58,127.58,0,0,1-26.52,2.44q-22.37,0-38.56-9.32a61.26,61.26,0,0,1-24.8-26.8q-8.6-17.49-8.6-41.86,0-24.09,8-42.15t23.08-28.24Q1665.13,100.24,1686.07,100.24Zm0,16.05q-20.07,0-32.26,13.19t-14.19,37.27h86.87q.29-15.19-4.16-26.38a38.57,38.57,0,0,0-13.47-17.63Q1699.83,116.29,1686.07,116.29Z"/><path class="cls-1" d="M1835.58,258.5q-30.11,0-46.88-19.78t-16.77-58.49q0-39.27,17.34-59.78t47.17-20.5a61,61,0,0,1,21.93,3.59,50,50,0,0,1,15.91,9.6,54.18,54.18,0,0,1,10.89,13.76h1.15q-.28-5.73-.72-13.76t-.43-13.76V44a6.21,6.21,0,0,1,6.21-6.21h6.8a6.2,6.2,0,0,1,6.2,6.21V250.12a5.5,5.5,0,0,1-5.5,5.51h-5.31a5.5,5.5,0,0,1-5.47-4.93L1886,231h-.86a56.47,56.47,0,0,1-10.89,13.9,49.75,49.75,0,0,1-16.2,9.89A62.14,62.14,0,0,1,1835.58,258.5Zm2.58-16.34q25.8,0,36.41-15.2t10.6-44.15v-3.44q0-30.68-10.46-46.87t-36-16.2q-22.93,0-34.84,16.91T1792,180.8q0,29.82,11.46,45.59T1838.16,242.16Z"/></svg>